<?xml version="1.0" encoding="utf-8"?>
<!-- Generator: Adobe Illustrator 25.3.1, SVG Export Plug-In . SVG Version: 6.00 Build 0)  -->
<svg version="1.1" id="Layer_1" xmlns="http://www.w3.org/2000/svg" xmlns:xlink="http://www.w3.org/1999/xlink" x="0px" y="0px"
	 viewBox="0 0 1000 1000" style="enable-background:new 0 0 1000 1000;" xml:space="preserve">
<style type="text/css">
	.st0{fill:#3EB78B;}
	.st1{fill:#FFFFFF;}
</style>
<g id="logo" transform="translate(0.1 0.1)">
	<g id="Group_1">
		<path id="Path_1" class="st0" d="M460.12,518.39l-2.3,26.8c-0.4,0.2-0.7,1-0.9,2.6c-2.3,23.8-5.73,55-10.3,93.6
			c-5.5,46.4-34.7,99.3-87.6,158.7c-41.1,46-83.73,64.63-127.9,55.9c-55.8-11.2-86.27-44.7-91.4-100.5
			c-2.7-28.5,9.47-78.37,36.5-149.6c1.82-6.97,4.51-13.69,8-20c2.3-3.8,5-5.7,8.3-5.7c3.2,0,4.9,3.6,4.9,10.8c-2.3,0-4,3.8-5.1,11.4
			c-20.5,60.5-28.87,100.1-25.1,118.8c7.6,36,32.33,57.7,74.2,65.1c49.5,8.8,93.07-7,130.7-47.4c32.4-34.6,49.8-70.2,52.2-106.8
			c1.3-20.7,2.53-77.8,3.7-171.3c0.8-65.8,1.1-99,1.1-99.3c0-21.1,9.9-44.9,29.7-71.4c1.1-1.5,1.9-2.3,2.3-2.3
			c1.5,0,2.4,0.2,2.6,0.6c0.22,0.54,0.33,1.12,0.3,1.7c0,9.3-0.77,32.53-2.3,69.7l0.6,54.8c0.4,3.4,0.8,6.2,1.1,8.3l-0.3,0.3
			c0.57,2.43,1.34,4.8,2.3,7.1c8.8,19,19,29.5,30.8,31.4c4.6,0.8,7,1.1,7.4,1.1h4.6l3.7,37.7l-19.4,28h-4.3
			C477.9,528.89,467.83,525.27,460.12,518.39z"/>
		<path id="Path_2" class="st1" d="M477.02,622.59v-10.8l36-36.5h8.6l33.7,36.5v10.8l-33.7,36v0.6l33.1,35.4v11.4l-33.8,35.4
			l-10.3,0.6l-33.7-36v-11.4l34.8-35.4h-0.6L477.02,622.59z"/>
		<path id="Path_3" class="st0" d="M545.72,443.59c3.78-4.02,6.86-8.66,9.1-13.7c0.48-0.64,1.06-1.22,1.7-1.7
			c0.68-0.53,1.46-0.9,2.3-1.1c0.82-0.24,1.7-0.01,2.3,0.6c1.1,1.1,1.7,3,1.7,5.7c0,1.92-0.2,3.83-0.6,5.7
			c-5.5,27.4-13.1,47.87-22.8,61.4c-1.1,1.5-2.2,3-3.1,4.3c-11.2,14.1-23.97,22-38.3,23.7l-6.2,0.1l-8.6-37.3l22.6-27.7
			c5.1-0.4,14-5.7,18.2-6.2C531.52,454.89,538.72,450.29,545.72,443.59z"/>
		<path id="Path_4" class="st0" d="M587.12,533.99c-16.7,2.9-27.9,4.3-33.8,4.3c-0.81,0.02-1.61,0.13-2.4,0.3
			c-0.65,0.18-1.33,0.21-2,0.1c-0.42-0.2-0.74-0.56-0.9-1c-0.41-0.94-0.75-1.91-1-2.9c37.5-21.7,65.1-38.53,82.8-50.5
			c0.8-0.2,3.4-1.8,7.8-4.7c4.5-3,7.5-5,9.1-6.3c2.3-1.88,4.51-3.89,6.6-6c2.45-2.36,4.51-5.09,6.1-8.1c0.53-1.38,0.87-2.83,1-4.3
			c0.3-2.1,0.5-4.2,0.7-6.4c0.07-1.38,0.27-2.76,0.6-4.1c-6.5,0-12.1-0.2-16.8-0.6c-5.52-0.52-11-1.42-16.4-2.7
			c-5.72-1.18-11.07-3.72-15.6-7.4c-4.18-3.47-7.24-8.1-8.8-13.3c-1.9-5.1-1.3-12.2,1.7-21.1c1.67-4.73,3.11-9.53,4.3-14.4
			c1.5-6,2.9-11.1,4.1-15.4c1.38-4.75,3.18-9.37,5.4-13.8c2.09-4.46,4.93-8.52,8.4-12c8.8-9.3,17.3-12.8,25.7-10.6
			c4,1.1,8.8,5.2,14.3,12.3c10.1,13.7,14.57,32.63,13.4,56.8c-0.65,15.18-3.55,30.17-8.6,44.5c-5.1,14.7-11,29.93-17.7,45.7
			c-1.12,2.38-2.12,4.82-3,7.3c-1.4,3.7-2.6,6.6-3.4,8.6c-1.06,2.4-2.27,4.74-3.6,7c-1.3,2.45-3.11,4.6-5.3,6.3
			c-1.97,1.53-4.26,2.59-6.7,3.1C619.22,527.99,603.82,531.09,587.12,533.99z"/>
		<path id="Path_5" class="st0" d="M725.52,507.39c-14.5-36.7-17.57-102.73-9.2-198.1l4-47.4l0.6-8.6c0.2-1.1,1.2-3.2,3.1-6.3
			c8-13.5,14.6-24.3,19.7-32.3c1-1.44,2.14-2.78,3.4-4c0.8-0.4,1-0.7,0.9-0.9l0.6,0.6c-5.1,47.4-8.23,85-9.4,112.8
			c-0.6,12.2-1,22-1.1,29.4c-2.7,38.8,0.7,68.1,10,87.9c7.2,15.6,18.3,25.3,33.1,29.1h6.6l16.3,44l-32,25.7h-4.3
			c-7.85,0.14-15.58-1.94-22.3-6C736.42,526.85,729.45,517.83,725.52,507.39z"/>
		<path id="Path_6" class="st1" d="M782.62,276.99v-10.9l36-36.5h8.6l33.7,36.5v10.9l-33.4,36v0.6l32.8,35.4v11.4l-33.7,35.3
			l-10.3,0.6l-33.7-36v-11.4l34.8-35.4h-0.5L782.62,276.99z"/>
		<path id="Path_7" class="st0" d="M762.32,501.39l26.8-32.8c17.5,0,30.07-8.57,37.7-25.7c5.3-11.8,8.4-17.6,9.1-17.3
			c0.54,0.23,1.11,0.37,1.7,0.4l2.3-1.1c0.8-0.4,1.5-0.2,2.3,0.6s1.3,2.7,1.7,5.7c0.13,1.92-0.07,3.85-0.6,5.7
			c-8.2,37.9-16.4,62.4-24.6,73.7c-12.2,16.7-26.1,26.1-41.7,28h-3.7L762.32,501.39z"/>
		<path id="Path_8" class="st1" d="M692.92,208.09c-7.6,0-40.9-27.5-40.9-27.5l1.8-9.4c10.5,0,27.5,0,33.9-1.2v-0.6
			c-4.1-2.3-11.1-12.3-11.1-25.7c0-27.5,20.5-59.6,52-59.6c30.4,0,33.3,51.4,33.3,51.4l-9.4,2.3c-3.5-4.7-11.1-13.4-24-13.4
			c-15.8,0-28.1,7.6-35.1,14c4.1,12.3,17,24,35.7,24c13.4,0,29.2-2.9,46.2-9.4l2.9,4.1l-15.2,33.9
			C756.12,194.69,702.32,208.09,692.92,208.09z"/>
	</g>
	<g id="Group_2">
		<path id="Path_9" class="st1" d="M411.22,845.19l-7.5-22.9v-0.1c1.5-3.8,2.8-6.9,3.8-9.2s2.4-5,4.2-8.2
			c1.62-2.92,3.53-5.67,5.7-8.2c3-3.6,6.2-5.4,9.8-5.4c1.89-0.05,3.75,0.51,5.3,1.6c1.5,1.08,2.71,2.53,3.5,4.2
			c0.82,1.69,1.46,3.47,1.9,5.3c0.39,1.74,0.59,3.52,0.6,5.3c-0.11,3.56-0.82,7.08-2.1,10.4c-0.1,0.1-0.1,0.1-0.1,0.3
			c0.01,0.11-0.02,0.22-0.1,0.3c0.01,0.27-0.1,0.52-0.3,0.7c-0.77,0.93-1.64,1.77-2.6,2.5c-1.2,1-2.1,1.8-2.7,2.4l-0.1,0.1
			l-18.7-6.7l-1.8,4.5l7.3,20.5l-0.2,0.1c-3.4,1.5-5.3,2.3-5.7,2.4L411.22,845.19z M414.52,812.09l16.5,5.7c1.1-1.6,1.7-4.5,1.7-8.7
			c0-2.53-0.59-5.03-1.7-7.3c-0.89-2.08-2.94-3.42-5.2-3.4c-3.1,0-6.2,3.1-9.2,9.4c-0.2,0.3-0.6,1.1-1.2,2.3
			c-0.1,0.3-0.3,0.7-0.4,1.1C414.82,811.47,414.65,811.77,414.52,812.09L414.52,812.09z"/>
		<path id="Path_10" class="st1" d="M496.52,816.29l0.5,0.6v6.2l-0.5,0.5h-2.8c-3.5,0-6.2-0.8-7.9-2.3c-2.16-2.04-3.77-4.58-4.7-7.4
			l-0.2,0.2l-0.1,0.1c0,0.1,0,0.2-0.1,0.2s-0.1,0.1-0.2,0.2c-7.6,6.7-17.7,10.8-30.3,12.5h-0.2l-2.6-6.8l0.2-0.4h0.2
			c6.25-0.68,12.41-1.98,18.4-3.9c0.21-0.02,0.42-0.09,0.6-0.2l-0.2-0.5c-2.7-9.9-7.4-20.9-14.3-32.9l-0.1-0.2l5.8-3.3l0.2,0.2
			c4.65,8.42,8.41,17.3,11.2,26.5c0.2,0.8,0.5,2.1,0.9,3.8c0.27,1.28,0.6,2.55,1,3.8l0.2,0.7c1.33-0.84,2.69-1.6,4.1-2.3
			c1.44-0.82,2.81-1.76,4.1-2.8v-45.5h6.1v40.1c0,2.1,0.1,3.8,0.2,5.1c0.13,1.36,0.5,2.68,1.1,3.9c0.59,1.28,1.62,2.31,2.9,2.9
			c1.65,0.67,3.42,0.97,5.2,0.9h1.3L496.52,816.29z"/>
		<path id="Path_11" class="st1" d="M500.82,799.39v-6.7l0.2-0.1c3.1-1.2,6.38-1.88,9.7-2c3.9,0,8.8,2,14.5,6
			c1.7,1.1,5.9,4.5,12.7,10l0.1,0.1l-1.5,6.2l-0.2,0.1c-10.1,4.3-15.8,6.7-17,7.1c-5.77,2.26-11.9,3.48-18.1,3.6h-6.7l-0.8-0.8v-5.7
			l0.8-0.8h7.2c8.8,0,18.6-2.7,29.5-8.2c-3.23-2.44-6.6-4.67-10.1-6.7c-4.3-2.4-8.2-3.6-11.6-3.6c-2.89,0.12-5.75,0.62-8.5,1.5
			L500.82,799.39z"/>
		<path id="Path_12" class="st1" d="M558.02,764.59l0.3,3.3l-0.2,0.1c-2.69,0.63-5.44,0.93-8.2,0.9h-7.3v-3.6l4.6,0.2
			c-0.1-0.1-0.1-0.2-0.3-0.4c-0.1-0.2-0.2-0.3-0.3-0.3c-0.15-0.15-0.29-0.32-0.4-0.5c-0.12-0.21-0.25-0.41-0.4-0.6
			c-0.51-0.85-0.78-1.81-0.8-2.8c0-1.88,0.45-3.73,1.3-5.4l0.2-0.2c1.81-0.58,3.7-0.89,5.6-0.9c1.41-0.01,2.82,0.13,4.2,0.4l0.2,0.1
			l-0.2,3h-0.2c-1.49-0.16-3-0.23-4.5-0.2c-1.08-0.08-2.17,0.06-3.2,0.4c-0.1,0.36-0.17,0.73-0.2,1.1c0,3,0.6,5.1,1.9,6.4h0.2
			c2.46,0.07,4.93-0.24,7.3-0.9L558.02,764.59z M545.92,778.69l4.8-4.3l0.2,0.2c8.9,7.2,15.3,13.2,19.3,18.1l0.2-0.2l0.2-0.2
			c0-0.1,0-0.1,0.1-0.2c1.86-4.44,2.91-9.19,3.1-14c0.1-1.1,0.1-5.9,0.1-14.5v-0.2h6.1v8.4c0,11.1-1.7,19.5-5.1,25.2l-0.2,0.4
			l0.2,0.3c4.35,5.89,8.23,12.1,11.6,18.6v0.1l-3.2,7.3h-35.7l-2.7-7l0.1-0.5l0.2-0.1c4.04-2.16,7.86-4.7,11.4-7.6
			c3.7-3.15,7.15-6.6,10.3-10.3l0.2-0.2l0.1-0.2l-0.3-0.3c-6.48-6.68-13.4-12.93-20.7-18.7L545.92,778.69z M552.22,816.69h28.5
			c-0.22-0.21-0.43-0.45-0.6-0.7c-0.3-0.4-0.7-1.2-1.3-2.2c-0.6-1.1-1.1-1.9-1.4-2.4c-1.99-3.15-4.2-6.15-6.6-9l-0.2-0.2
			c-4.84,5.97-10.91,10.81-17.8,14.2L552.22,816.69z"/>
		<path id="Path_13" class="st1" d="M601.82,763.19v60.3h-6.2v-60.3H601.82z"/>
		<path id="Path_14" class="st1" d="M659.72,816.29l0.5,0.6v6.2l-0.5,0.5h-1.9c-2.61-0.13-5.1-1.11-7.1-2.8l-1.7-1.2
			c0,2.4-0.1,4.5-0.2,6.2c-0.17,1.92-0.51,3.83-1,5.7c-0.4,1.87-1.18,3.64-2.3,5.2c-1.13,1.4-2.57,2.53-4.2,3.3
			c-2.06,0.97-4.32,1.45-6.6,1.4c-1.89-0.02-3.75-0.39-5.5-1.1l-0.2-0.1l-1.1-6.8l0.4,0.1c2.16,0.71,4.43,1.05,6.7,1
			c3.1,0,5.2-0.9,6.3-2.8c1.24-2.41,1.82-5.1,1.7-7.8v-29.2h6v19.9h0.4c1.57,0.69,3.21,1.19,4.9,1.5
			C655.42,816.19,657.22,816.29,659.72,816.29L659.72,816.29z"/>
		<path id="Path_15" class="st1" d="M688.92,816.29l0.5,0.6v6.2l-0.5,0.5h-2.5c-1.79-0.04-3.54-0.52-5.1-1.4
			c-1.63-0.82-3.09-1.94-4.3-3.3l-0.2-0.2l-0.1-0.1c0-0.1,0-0.2-0.1-0.2s-0.1,0-0.1-0.1s0-0.1-0.1-0.2l-3.1,5.4h-15.8l-0.8-0.8v-5.8
			l0.8-0.6h14.8v-21.7h6.2v19.6h0.1l0.2,0.1c1.42,0.84,2.98,1.41,4.6,1.7C685.24,816.25,687.08,816.35,688.92,816.29L688.92,816.29z
			 M664.92,840.49c-1,0.01-1.96-0.43-2.6-1.2c-0.69-0.73-1.08-1.69-1.1-2.7c0.02-0.98,0.41-1.91,1.1-2.6c0.68-0.7,1.62-1.1,2.6-1.1
			c1.04,0,2.04,0.39,2.8,1.1c0.74,0.66,1.15,1.61,1.1,2.6c0,1.04-0.39,2.04-1.1,2.8C666.95,840.08,665.96,840.47,664.92,840.49z
			 M679.72,839.29c-1.22,1.44-3.38,1.61-4.82,0.38c-0.14-0.12-0.27-0.25-0.38-0.38c-0.69-0.73-1.08-1.69-1.1-2.7
			c0.02-0.98,0.41-1.91,1.1-2.6c1.46-1.44,3.81-1.41,5.25,0.05S681.19,837.86,679.72,839.29L679.72,839.29z"/>
		<path id="Path_16" class="st1" d="M705.12,795.59l-2.6,18.2c3.87,1.7,8.07,2.52,12.3,2.4h0.5l2.8-20.7h6.2l-2.2,18.5
			c0.6,0.6,2.7,1.2,6.3,1.6c2.79,0.35,5.59,0.55,8.4,0.6h0.9c-0.4-2.5-1-6.2-1.8-11.2c-0.8-4.9-1.3-8.6-1.7-11v-0.2l6.2-1.5l0.1,0.3
			c1.2,6.6,2,11.6,2.5,14.9c0.5,3.9,0.7,6,0.7,6.2v0.2h0.1c0.1,0.1,0.1,0.1,0.2,0.1c1.41,0.77,2.93,1.35,4.5,1.7
			c1.69,0.23,3.39,0.33,5.1,0.3h0.1l0.5,0.6v6.2l-0.5,0.5h-2c-3.1,0-6.2-1.6-9.5-4.7l-3,4.7h-0.2c-6.26,0.13-12.44-1.43-17.9-4.5
			c-0.3-0.3-0.4-0.4-0.5-0.4l-3.3,4.9h-0.4c-2.82-0.01-5.62-0.44-8.3-1.3c-2.55-0.73-4.93-1.95-7-3.6l-0.6,4.9h-14.8l-0.5-0.4v-6.2
			l0.5-0.4h9.7l2.9-20.7L705.12,795.59L705.12,795.59z"/>
		<path id="Path_17" class="st1" d="M795.82,816.29l0.5,0.4v6.5l-0.5,0.4h-4.2c-4.97,0.14-9.9-0.89-14.4-3
			c-0.43-0.23-0.91-0.37-1.4-0.4c-0.62,0.13-1.22,0.33-1.8,0.6c-4.2,1.9-9.7,2.8-16.5,2.8h-6l-0.5-0.7v-5.8l0.6-0.8h17.8
			c-4.8-3.6-8.2-7.3-10.3-11.2v-0.2c0.59-1.92,1.4-3.76,2.4-5.5c0.99-1.79,2.13-3.5,3.4-5.1c1.28-1.65,2.93-2.98,4.8-3.9
			c1.85-0.99,3.91-1.5,6-1.5c3.64-0.17,7.16,1.3,9.6,4c2.41,2.73,3.7,6.26,3.6,9.9c0.04,1.84-0.26,3.67-0.9,5.4
			c-0.77,1.78-1.74,3.45-2.9,5c-1,1.2-1.7,2.1-2.3,2.8C785.62,816.19,790.02,816.29,795.82,816.29L795.82,816.29z M764.92,803.69
			l0.2,0.3c3.2,5.1,7.1,8.5,11.7,10.3c0.1,0,0.1,0,0.2,0.1s0.1,0.1,0.2,0.1v-0.1l0.2-0.2c1.6-1.37,3.04-2.92,4.3-4.6
			c0.95-1.49,1.44-3.23,1.4-5c0.26-4.54-3.21-8.44-7.75-8.7c-0.31-0.02-0.63-0.02-0.95,0C770.82,795.89,767.62,798.49,764.92,803.69
			z M777.42,778.29c-1.22,1.44-3.38,1.61-4.82,0.38c-0.14-0.12-0.27-0.25-0.38-0.38c-0.69-0.73-1.08-1.69-1.1-2.7
			c0.02-0.98,0.41-1.91,1.1-2.6c0.66-0.74,1.61-1.15,2.6-1.1c0.98,0,1.92,0.4,2.6,1.1c0.69,0.69,1.08,1.62,1.1,2.6
			C778.5,776.6,778.11,777.56,777.42,778.29z"/>
		<path id="Path_18" class="st1" d="M825.62,816.29l0.5,0.6v6.2l-0.5,0.5h-2.8c-1.79-0.04-3.54-0.52-5.1-1.4
			c-1.63-0.82-3.09-1.94-4.3-3.3l-0.2-0.2l-0.1-0.1c0-0.1,0-0.2-0.1-0.2s-0.1,0-0.1-0.1s0-0.1-0.1-0.2l-3.1,5.4h-15.8l-0.8-0.8v-5.8
			l0.8-0.6h14.8v-21.7h6.2v19.6h0.1l0.2,0.1l2.4,1.2c0.83,0.33,1.71,0.53,2.6,0.6C821.42,816.19,823.22,816.29,825.62,816.29z
			 M802.62,781.89c-2.03-0.03-3.67-1.67-3.7-3.7c0.02-1.01,0.41-1.97,1.1-2.7c0.67-0.79,1.66-1.23,2.7-1.2c1.04,0,2.04,0.39,2.8,1.1
			c0.75,0.73,1.15,1.75,1.1,2.8c0,0.98-0.4,1.92-1.1,2.6C804.71,781.49,803.69,781.88,802.62,781.89L802.62,781.89z M817.52,780.79
			c-1.45,1.44-3.8,1.42-5.23-0.03c-0.68-0.68-1.06-1.61-1.07-2.57c0.02-1.01,0.41-1.97,1.1-2.7c1.35-1.49,3.65-1.61,5.14-0.26
			c0.09,0.08,0.18,0.17,0.26,0.26c0.69,0.73,1.08,1.69,1.1,2.7C818.6,779.15,818.15,780.04,817.52,780.79L817.52,780.79z"/>
		<path id="Path_19" class="st1" d="M832.92,763.19h6.4v60.3h-16.6l-0.6-0.6v-6.1l0.6-0.6h10.2V763.19z"/>
	</g>
	<g id="Group_3">
		<path id="Path_20" class="st0" d="M583.92,643.69l6.8-6l0.2,0.4c9,16,15.4,27.6,19.2,34.7v0.1l-4.1,10.8
			c-5.32,2.86-11.26,4.34-17.3,4.3c-4.78,0.1-9.48-1.22-13.5-3.8c-3.8-2.5-5.7-6.3-5.7-11.1c-0.03-4.83,1.68-9.51,4.8-13.2
			c3.7-4.4,7.9-8.36,12.5-11.8L583.92,643.69z M583.32,628.19c-0.97,0.99-2.31,1.54-3.7,1.5c-1.38,0.03-2.7-0.56-3.6-1.6
			c-0.91-0.98-1.41-2.27-1.4-3.6c0-1.29,0.55-2.53,1.5-3.4c0.9-0.97,2.17-1.52,3.5-1.5c1.36-0.02,2.66,0.52,3.6,1.5
			c1,0.89,1.58,2.16,1.6,3.5C584.84,625.95,584.3,627.25,583.32,628.19z M602.32,675.29l-0.1-0.2c-0.4-0.6-1.9-3.4-4.5-8.3
			c-0.6-1.1-1.5-2.6-2.6-4.6c-1.2-2-1.9-3.2-2.1-3.6c-0.2-0.5-0.6-1.2-1.1-2.2c-0.5-0.9-0.9-1.6-1.1-1.9
			c-0.08-0.19-0.15-0.39-0.2-0.6c-3.36,2.03-6.39,4.56-9,7.5c-2.9,3.2-4.3,6.1-4.3,8.8c-0.02,2.68,1.61,5.1,4.1,6.1
			c2.85,1.33,5.96,2.01,9.1,2c2.25-0.02,4.49-0.25,6.7-0.7c1.99-0.27,3.89-0.95,5.6-2L602.32,675.29z M599.52,628.09
			c-0.91,1.04-2.22,1.62-3.6,1.6c-1.35,0.05-2.65-0.55-3.5-1.6c-0.88-0.99-1.34-2.28-1.3-3.6c0.12-2.65,2.25-4.78,4.9-4.9
			c1.33-0.02,2.6,0.53,3.5,1.5c0.94,0.89,1.48,2.11,1.5,3.4C600.95,625.83,600.42,627.1,599.52,628.09L599.52,628.09z"/>
		<path id="Path_21" class="st0" d="M655.42,676.59l0.6,0.8v8.3l-0.6,0.6h-2.6c-2.9,0-6.1-1.2-9.5-3.7l-2.3-1.6c0,3.2-0.1,6-0.3,8.2
			c-0.24,2.56-0.67,5.1-1.3,7.6c-0.53,2.45-1.55,4.76-3,6.8c-1.47,1.87-3.35,3.37-5.5,4.4c-2.75,1.28-5.77,1.9-8.8,1.8
			c-2.51,0-4.99-0.51-7.3-1.5l-0.2-0.1l-1.5-9l0.5,0.1c2.86,0.98,5.88,1.43,8.9,1.3c4.1,0,6.9-1.3,8.3-3.8c1.5-2.5,2.2-6,2.2-10.3
			v-38.8h8v26.4h0.4c2.06,0.97,4.25,1.64,6.5,2c2.42,0.32,4.86,0.46,7.3,0.4h0.2L655.42,676.59z"/>
		<path id="Path_22" class="st0" d="M679.52,686.29h-26.9l-1.1-1.1v-7.8l1.1-0.9h18.8v-32.4h8.1V686.29L679.52,686.29z
			 M661.62,707.29c-0.89,1-2.16,1.58-3.5,1.6c-1.35,0.02-2.64-0.56-3.5-1.6c-0.98-0.94-1.52-2.24-1.5-3.6c0-1.29,0.55-2.53,1.5-3.4
			c1.84-1.93,4.9-2.01,6.83-0.17c0.06,0.05,0.11,0.11,0.17,0.17c0.95,0.87,1.5,2.11,1.5,3.4
			C663.01,705.02,662.49,706.28,661.62,707.29L661.62,707.29z M674.42,708.79c-1.35,0.02-2.64-0.56-3.5-1.6
			c-0.98-0.94-1.52-2.24-1.5-3.6c0-1.29,0.55-2.53,1.5-3.4c0.9-0.97,2.17-1.52,3.5-1.5c2.65,0.12,4.78,2.25,4.9,4.9
			c-0.02,1.35-0.56,2.64-1.5,3.6C676.99,708.21,675.74,708.79,674.42,708.79L674.42,708.79z"/>
		<path id="Path_23" class="st0" d="M724.22,676.59l0.6,0.8v8.3l-0.6,0.6h-2.5c-2.9,0-6.1-1.2-9.5-3.7l-2.3-1.6c0,3.2-0.1,6-0.3,8.2
			c-0.24,2.56-0.67,5.1-1.3,7.6c-0.53,2.45-1.55,4.76-3,6.8c-1.47,1.87-3.35,3.37-5.5,4.4c-2.75,1.28-5.77,1.9-8.8,1.8
			c-2.51,0-4.99-0.51-7.3-1.5l-0.2-0.1l-1.5-9l0.5,0.1c2.86,0.98,5.88,1.43,8.9,1.3c4.1,0,6.9-1.3,8.3-3.8c1.5-2.5,2.2-6,2.2-10.3
			v-38.8h8v26.4h0.4c4.34,1.77,9.01,2.63,13.7,2.5H724.22z M704.92,630.39c-1.38,0.03-2.7-0.56-3.6-1.6
			c-0.91-0.98-1.41-2.27-1.4-3.6c0-1.29,0.55-2.53,1.5-3.4c0.9-0.97,2.17-1.52,3.5-1.5c1.29,0,2.53,0.55,3.4,1.5
			c0.94,0.89,1.48,2.11,1.5,3.4c0.01,1.33-0.49,2.62-1.4,3.6C707.56,629.83,706.27,630.42,704.92,630.39z"/>
		<path id="Path_24" class="st0" d="M730.02,654.19v-8.9l0.2-0.1c5.2-1.8,9.5-2.7,12.8-2.7c5.2,0,11.7,2.7,19.3,8
			c1.9,1.3,3.9,2.7,5.8,4.1c1.9,1.5,4.1,3.3,6.7,5.4c2.5,2.1,4,3.4,4.5,3.7l0.1,0.1l-2,8.2l-5.9,2.6c3.06,1.33,6.36,2.01,9.7,2h9.8
			l0.6,0.6v8.5l-0.6,0.5h-9.7c-6.2,0-11.5-3.1-15.9-9.2l-0.3,0.1h-0.2c-0.3,0.1-0.5,0.3-0.8,0.3c-0.78,0.23-1.52,0.56-2.2,1
			c-0.76,0.26-1.5,0.6-2.2,1c-0.53,0.21-1.03,0.48-1.5,0.8c-8.67,3.93-18.08,5.97-27.6,6h-9l-1.1-1.1v-7.4l1.1-1.1h9.8
			c11.6,0,24.7-3.6,39.2-10.9c-4.3-3.22-8.77-6.19-13.4-8.9c-5.7-3.2-10.9-4.7-15.4-4.7c-3.84,0.18-7.63,0.85-11.3,2L730.02,654.19z
			 M758.42,704.79c-1.33,0.02-2.6-0.53-3.5-1.5c-1.88-1.95-1.82-5.05,0.13-6.93c0.88-0.85,2.05-1.34,3.27-1.37
			c1.36-0.01,2.68,0.49,3.7,1.4c0.97,0.86,1.52,2.1,1.5,3.4c0.02,1.33-0.53,2.6-1.5,3.5C761.12,704.32,759.79,704.88,758.42,704.79z
			"/>
		<path id="Path_25" class="st0" d="M801.42,606.19h8.5v80.1h-22.1l-0.8-0.8v-8.1l0.8-0.9h13.6V606.19z"/>
		<path id="Path_26" class="st0" d="M836.62,606.19v80.1h-8.2v-80.1H836.62z"/>
	</g>
</g>
</svg>
